<svg width="24" height="24" fill="none" xmlns="http://www.w3.org/2000/svg"><g clip-path="url(#clip0)" fill-rule="evenodd" clip-rule="evenodd"><path d="M24 12c0-6.627-5.373-12-12-12S0 5.373 0 12s5.373 12 12 12 12-5.373 12-12zm-1.846 0c0-5.608-4.546-10.154-10.154-10.154S1.846 6.392 1.846 12 6.392 22.154 12 22.154 22.154 17.608 22.154 12z" fill="#fff"/><path d="M5.85 1.695A12 12 0 0112 0v1.846C6.392 1.846 1.846 6.392 1.846 12S6.392 22.154 12 22.154c4.175 0 7.761-2.52 9.321-6.12l1.692.731A12 12 0 115.851 1.695z" fill="#55657D"/></g><defs><clipPath id="clip0"><path fill="#fff" d="M0 0h24v24H0z"/></clipPath></defs></svg>